<?xml version="1.0" encoding="UTF-8" standalone="no"?>
<svg
   height="512"
   width="512"
   version="1.1"
   id="svg4"
   sodipodi:docname="os_xeroarch.svg"
   inkscape:version="1.3.2 (091e20ef0f, 2023-11-25, custom)"
   xml:space="preserve"
   xmlns:inkscape="http://www.inkscape.org/namespaces/inkscape"
   xmlns:sodipodi="http://sodipodi.sourceforge.net/DTD/sodipodi-0.dtd"
   xmlns="http://www.w3.org/2000/svg"
   xmlns:svg="http://www.w3.org/2000/svg"
   xmlns:rdf="http://www.w3.org/1999/02/22-rdf-syntax-ns#"
   xmlns:cc="http://creativecommons.org/ns#"
   xmlns:dc="http://purl.org/dc/elements/1.1/"><metadata
     id="metadata10"><rdf:RDF><cc:Work
         rdf:about=""><dc:format>image/svg+xml</dc:format><dc:type
           rdf:resource="http://purl.org/dc/dcmitype/StillImage" /></cc:Work></rdf:RDF></metadata><defs
     id="defs8"><clipPath
       clipPathUnits="userSpaceOnUse"
       id="clipPath2"><path
         d="M 0,1080 H 1920 V 0 H 0 Z"
         transform="translate(-944.07265,-788.45402)"
         id="path2" /></clipPath><clipPath
       clipPathUnits="userSpaceOnUse"
       id="clipPath4"><path
         d="M 0,1080 H 1920 V 0 H 0 Z"
         transform="translate(-915.04502,-474.36611)"
         id="path4" /></clipPath><clipPath
       clipPathUnits="userSpaceOnUse"
       id="clipPath6"><path
         d="M 0,1080 H 1920 V 0 H 0 Z"
         transform="translate(-954.09505,-549.32981)"
         id="path6" /></clipPath><clipPath
       clipPathUnits="userSpaceOnUse"
       id="clipPath8"><path
         d="M 0,1080 H 1920 V 0 H 0 Z"
         transform="translate(-1003.8712,-455.51061)"
         id="path8" /></clipPath><style
       id="style1">
      .cls-1 {
        fill: none;
      }

      .cls-1, .cls-2, .cls-3, .cls-4, .cls-5, .cls-6, .cls-7 {
        stroke: #000;
        stroke-miterlimit: 10;
      }

      .cls-2 {
        fill: #080014;
      }

      .cls-3 {
        fill: #6daaff;
      }

      .cls-4 {
        fill: #40ff45;
      }

      .cls-5 {
        fill: #0ff4ff;
      }

      .cls-6 {
        fill: #82ffeb;
      }

      .cls-7 {
        fill: #f4feff;
      }
    </style></defs><sodipodi:namedview
     pagecolor="#ffffff"
     bordercolor="#666666"
     borderopacity="1"
     objecttolerance="10"
     gridtolerance="10"
     guidetolerance="10"
     inkscape:pageopacity="0"
     inkscape:pageshadow="2"
     inkscape:window-width="1920"
     inkscape:window-height="1008"
     id="namedview6"
     showgrid="false"
     inkscape:zoom="0.921875"
     inkscape:cx="363.9322"
     inkscape:cy="264.67797"
     inkscape:window-x="0"
     inkscape:window-y="0"
     inkscape:window-maximized="1"
     inkscape:current-layer="layer1"
     inkscape:showpageshadow="2"
     inkscape:pagecheckerboard="0"
     inkscape:deskcolor="#d1d1d1" /><path
     style="display:none;fill:#6790eb;fill-opacity:1;stroke-width:1.97492"
     d="m 54.14915,445.07441 c 0,-1.33723 193.97658,-370.326512 200.47931,-381.359012 l 4.49235,-7.62184 4.90655,8.60928 c 2.69863,4.73499 22.47531,42.380272 43.94809,83.655942 21.47281,41.2758 64.77244,124.26304 96.22134,184.41611 44.1299,84.40826 56.57137,109.75487 54.51379,111.05872 -1.46638,0.92921 -19.13766,1.70312 -39.2695,1.71986 l -36.60343,0.0296 -10.79456,-10.94563 C 344.96135,407.1769 297.62711,382.2807 244.72842,367.67428 l -23.6989,-6.54376 29.62371,-1.48588 c 27.82898,-1.39581 59.22256,-0.45483 76.38658,2.28986 5.7369,0.91742 7.54733,0.54155 7.54733,-1.56694 0,-5.20908 -72.6179,-137.94998 -75.46774,-137.94998 -2.07691,0 -16.73665,25.55335 -73.64493,128.36945 -27.95613,50.50844 -50.98359,92.02079 -51.17223,92.24967 -0.84243,1.02227 -80.15309,3.03809 -80.15309,2.03704 z"
     id="path4559-6-7-5"
     inkscape:connector-curvature="0" /><g
     inkscape:label="Layer 1"
     id="layer1"
     transform="matrix(2.4206683,0,0,2.4206683,584.43292,-95.356396)"
     style="display:inline"><g
       id="g1"
       transform="matrix(0.39172954,0,0,0.39172954,-236.06597,54.309629)"><path
         class="cls-2"
         d="M 257.64,464.72 H 35.53 c -5.6,0 -11.14,-1.36 -16.04,-4.09 -5.18,-2.89 -11.1,-7.65 -15.07,-15.38 -9.25,-18 0.67,-35.46 1.34,-36.6 L 227.65,19.46 c 1.53,-2.98 4.55,-7.91 10.06,-12.17 0.08,-0.06 0.16,-0.12 0.24,-0.18 11.58,-8.81 27.78,-8.81 39.36,0 0.08,0.06 0.16,0.12 0.24,0.18 5.51,4.26 8.54,9.19 10.06,12.17 L 509.5,408.65 c 0.67,1.13 10.59,18.6 1.34,36.6 -3.97,7.72 -9.9,12.49 -15.07,15.38 -4.89,2.73 -10.43,4.09 -16.04,4.09 H 257.62 Z"
         id="path1" /><path
         class="cls-5"
         d="m 257.63,27.31 c -0.61,-0.01 -1.51,0.03 -2.53,0.32 0,0 -1.16,0.33 -2.32,1.06 -1.61,1.01 -4.1,3.85 -6.42,8.06 L 134.84,231.63 c -0.95,1.66 -1.4,3.58 -1.13,5.48 0.12,0.83 0.36,1.66 0.82,2.36 0.24,0.37 0.84,1.15 1.56,1.95 0.61,0.67 1.16,1.18 1.55,1.53 v 0 c 0,0 48.72,29.87 48.72,29.87 v 0 c 0.86,0.3 3.63,1.14 6.78,-0.01 2.09,-0.76 3.41,-2.05 4.05,-2.77 l 53.85,-94.62 c 0.51,-0.67 1.67,-2.01 3.64,-2.79 1.17,-0.46 2.23,-0.57 2.95,-0.57 0.72,0 1.78,0.11 2.95,0.57 1.97,0.78 3.14,2.12 3.64,2.79 l 53.85,94.62 c 0.64,0.72 1.96,2.01 4.05,2.77 3.16,1.15 5.93,0.31 6.78,0.01 v 0 c 0,0 48.72,-29.87 48.72,-29.87 v 0 c 0.39,-0.35 0.94,-0.86 1.55,-1.53 0.73,-0.8 1.32,-1.58 1.56,-1.95 0.46,-0.7 0.71,-1.53 0.82,-2.36 0.27,-1.89 -0.18,-3.82 -1.13,-5.48 L 268.9,36.75 c -2.32,-4.21 -4.81,-7.05 -6.42,-8.06 -1.17,-0.74 -2.32,-1.06 -2.32,-1.06 -1.02,-0.29 -1.92,-0.33 -2.53,-0.32 h -0.02 z"
         id="path2-3" /><path
         class="cls-6"
         d="m 257.58,206.85 c -0.26,0.01 -0.67,0.05 -1.13,0.25 -1.12,0.47 -1.62,1.48 -2.67,3.31 -0.29,0.49 -0.79,1.36 -1.43,2.47 -1.98,3.45 -36.82,62.55 -38.65,67.77 -0.17,0.49 -0.45,1.64 -0.47,2.88 -0.02,0.67 0.04,1.56 0.47,2.48 0.01,0.03 0.03,0.06 0.04,0.08 0,0 0.05,0.1 0.1,0.19 2.19,3.99 20.51,15.07 20.51,15.07 3.28,1.99 7.29,4.53 14.4,8.64 v 0 c 0.31,0.18 0.74,0.43 1.26,0.69 0.45,0.23 1.28,0.65 2.39,1.06 0.91,0.34 2.08,0.76 3.66,0.95 0.64,0.08 1.19,0.1 1.57,0.1 h -0.03 c 0.38,0 0.93,-0.02 1.57,-0.1 1.58,-0.19 2.75,-0.62 3.66,-0.95 1.11,-0.41 1.94,-0.83 2.39,-1.06 0.52,-0.27 0.95,-0.51 1.26,-0.69 v 0 c 7.11,-4.1 11.12,-6.65 14.4,-8.64 0,0 18.31,-11.07 20.51,-15.07 0.05,-0.09 0.1,-0.19 0.1,-0.19 0.01,-0.03 0.03,-0.05 0.04,-0.08 0.44,-0.93 0.49,-1.81 0.47,-2.48 -0.03,-1.24 -0.3,-2.38 -0.47,-2.88 -1.83,-5.21 -36.67,-64.32 -38.65,-67.77 -0.64,-1.11 -1.14,-1.98 -1.43,-2.47 -1.08,-1.87 -1.57,-2.85 -2.67,-3.31 -0.49,-0.2 -0.94,-0.24 -1.22,-0.25 z"
         id="path3" /><path
         class="cls-1"
         d="m 224.19,294.82 32.35,-56.9 c 0.48,-0.84 1.68,-0.84 2.17,0 l 32.66,56.69"
         id="path4-6" /><path
         class="cls-7"
         d="m 279.79,441.33 c -6.89,0.24 -12.67,-2.33 -14.54,-6.71 -0.38,-0.89 -0.72,-2.15 -0.65,-3.8 v -86.36 c 0,-2.21 0.53,-4.39 1.66,-6.29 0,-0.01 0.01,-0.02 0.02,-0.03 3.14,-5.28 7.22,-8.78 10.52,-11.01 l 103.63,-62.89 c 2.59,-1.57 5.65,-2.17 8.64,-1.68 l 4.37,0.71 c 3.78,0.61 7.07,2.9 8.98,6.21 l 85.63,149.01 c 2.35,4.08 2.24,9.13 -0.27,13.11 l -2.39,3.8 c -2.33,3.69 -6.39,5.94 -10.76,5.94 H 279.8 Z"
         id="path5" /><path
         class="cls-7"
         d="m 236.44,441.33 c 6.89,0.24 12.67,-2.33 14.54,-6.71 0.38,-0.89 0.72,-2.15 0.65,-3.8 v -86.36 c 0,-2.21 -0.53,-4.39 -1.66,-6.29 0,-0.01 -0.01,-0.02 -0.02,-0.03 -3.14,-5.28 -7.22,-8.78 -10.52,-11.01 L 135.8,264.24 c -2.59,-1.57 -5.65,-2.17 -8.64,-1.68 l -4.37,0.71 c -3.78,0.61 -7.07,2.9 -8.98,6.21 L 28.2,418.51 c -2.35,4.08 -2.24,9.13 0.27,13.11 l 2.39,3.8 c 2.33,3.69 6.39,5.94 10.76,5.94 h 194.83 z"
         id="path6-7" /><line
         class="cls-1"
         x1="197.99001"
         y1="365.85001"
         x2="198.02"
         y2="365.85001"
         id="line6" /><line
         class="cls-1"
         x1="190.14"
         y1="361.09"
         x2="190.14"
         y2="361.14999"
         id="line7" /><circle
         class="cls-6"
         cx="179.89"
         cy="375.22"
         r="46.080002"
         id="circle7" /><path
         class="cls-4"
         d="m 181.02,343.14 h -10.95 c 0,0 -1.76,1.76 -1.76,1.76 v 16.19 c 0,0 0,0.08 0,0.08 v 1.47 c 0,0 0,0.2 0,0.2 v 0.14 c 0,0 -2.69,-2.06 -2.69,-2.06 l 0.88,0.64 -5.92,-4.3 h -0.96 c 0.02,0.29 0.03,0.57 0.05,0.86 1.06,2.1 2.12,4.19 3.17,6.29 l -0.96,-1.91 1.7,3.36 h -0.39 c -0.91,0 -1.81,0 -2.72,0 h -0.03 c 0,0 -15.23,0 -15.23,0 l -2.46,2.04 v 13.79 c 0.82,0.76 1.65,1.51 2.47,2.27 5.38,0 10.77,0 16.15,0 h 1.42 c 0,0 0.77,0 0.77,0 h 0.06 l -1.69,3.33 0.92,-1.82 c -1.06,2.1 -2.12,4.19 -3.17,6.29 -0.02,0.29 -0.03,0.57 -0.05,0.86 h 0.96 c 0,0 5.92,-4.3 5.92,-4.3 l -1.04,0.75 2.85,-2.1 v 0.47 c 0,0 0,0.97 0,0.97 0,6.15 0,12.31 0,18.46 0.59,0.47 1.18,0.93 1.77,1.4 h 10.93 c 0,0 -3.59,0 -3.59,0 h 10.93 c 0.59,-0.47 1.18,-0.93 1.77,-1.4 0,-6.15 0,-12.31 0,-18.46 v -1.44 l 2.85,2.1 -1.04,-0.75 5.92,4.3 h 0.96 c -0.02,-0.29 -0.03,-0.57 -0.05,-0.86 -1.06,-2.1 -2.12,-4.19 -3.17,-6.29 l 0.92,1.82 -1.69,-3.33 h 2.25 c 5.38,0 10.77,0 16.15,0 0.82,-0.76 1.65,-1.51 2.47,-2.27 V 367.9 l -2.46,-2.04 h -18.38 l 1.7,-3.36 -0.96,1.91 c 1.06,-2.1 2.12,-4.19 3.17,-6.29 0.02,-0.29 0.03,-0.57 0.05,-0.86 h -0.96 l -5.92,4.3 0.88,-0.64 -2.69,2.06 v -18.09 l -1.76,-1.76 h -10.95"
         id="path7" /><circle
         class="cls-5"
         cx="304.79001"
         cy="379.76001"
         r="14.98"
         id="circle8" /><circle
         class="cls-3"
         cx="339.34"
         cy="345.45999"
         r="14.98"
         id="circle9" /><circle
         class="cls-5"
         cx="373.22"
         cy="379.76001"
         r="14.98"
         id="circle10" /><circle
         class="cls-3"
         cx="339.34"
         cy="412.69"
         r="14.98"
         id="circle11" /><path
         class="cls-3"
         d="M 290.45,292.79 258.71,237.7 c -0.48,-0.84 -1.69,-0.83 -2.17,0 l -32.35,56.9 1.39,0.94 c 4.6,3.07 8.76,5.59 8.76,5.59 3.28,1.99 7.29,4.53 14.4,8.64 v 0 c 0.31,0.18 0.74,0.43 1.26,0.69 0.45,0.23 1.28,0.65 2.39,1.06 0.91,0.34 2.08,0.76 3.66,0.95 0.64,0.08 1.19,0.1 1.57,0.1 h -0.03 c 0.38,0 0.93,-0.02 1.57,-0.1 1.58,-0.19 2.75,-0.62 3.66,-0.95 1.11,-0.41 1.94,-0.83 2.39,-1.06 0.52,-0.27 0.95,-0.51 1.26,-0.69 v 0 c 7.11,-4.1 11.12,-6.65 14.4,-8.64 0,0 4.46,-2.7 9.25,-5.91 l 1.23,-0.83 -0.92,-1.6 z"
         id="path11" /></g></g></svg>
